<?xml version="1.0" encoding="UTF-8"?>
<svg version="1.1" viewBox="0 0 2000 2000" width="1280" height="1280" xmlns="http://www.w3.org/2000/svg">
<path transform="translate(0)" d="m0 0h2e3v2e3h-2e3z" fill="#FDFDFD"/>
<path transform="translate(1212,740)" d="m0 0h51l1 4-1 1-18 2-10 3-7 6-3 5-1 4v27l7 163 2 30 3 9 6 5 7 2 21 2 1 4-19 1h-76l-2-1 1-4 22-3 6-3 3-4 1-4v-30l-6-162v-18h-2l-2 5-7 17-7 15-26 60-15 35-13 30-9 21-14 32-6 12-3 2-4-4-13-27-15-33-16-35-15-33-13-29-1-8 8-14 6-9 8 16 19 41 18 39 19 41 7 14 2 1 3-9 13-30 36-82 23-53 14-32 8-16 5-5z" fill="#444142"/>
<path transform="translate(940,528)" d="m0 0h25l14 2 17 5 9 4 3 2 2 13 2 38-5-1-3-15-6-14-8-11-7-7-12-7-12-3h-20l-12 3-10 5-5 5-6 8-5 12-2 11v12l4 16 7 12 10 11 14 10 19 12 20 12 18 12 10 8 8 8 7 11-1 5-14 22-3 2-7-15-9-13-8-8-18-13-28-17-14-9-12-9-8-7-9-12-6-12-3-13v-18l3-13 7-14 8-10 13-9 10-5 17-5z" fill="#444142"/>
<path transform="translate(1135,595)" d="m0 0 5 1-1 6-9 13-13 19-12 17-14 20-13 19-10 14-28 40-11 16-16 23-10 14-14 20-10 14-14 20-10 14-12 17-13 18-13 19-12 16-11 16-13 18-8 11h-5l-1-3 9-14 14-20 32-46 13-19 13-18 13-19 12-17 13-19 10-14 14-20 96-136 13-18 13-19z" fill="#433F41"/>
<path transform="translate(1147,1209)" d="m0 0h11l11 3 7 5 7 9 3 10v11l-4 10-6 7-10 6-7 2h-14l-10-4-9-8-5-10-1-3v-11l3-10 7-9 7-5z" fill="#434041"/>
<path transform="translate(1234,1209)" d="m0 0h11l5 8 15 30v2l4-4 11-23 6-11 3-2h9l1 1v62h-9l-1-1v-42h-2l-2 5-11 23-5 8-4 2-5-6-15-30-1-1-1 41-2 1h-8v-62z" fill="#444142"/>
<path transform="translate(1008,1209)" d="m0 0h11l5 8 15 30 2 2 11-23 8-15 2-2h11v63h-9l-1-44-3 5-8 16-8 15-4 3-5-5-12-23-5-9-1 41-2 1h-8v-62z" fill="#444142"/>
<path transform="translate(412,1209)" d="m0 0h23l14 2 6 4 4 7 1 3v12l-4 8-6 5-5 2-9 1h-13l-1 18-3 1h-8v-62z" fill="#444142"/>
<path transform="translate(783,1209)" d="m0 0h10l3 5 18 41 6 14v3h-9l-3-2-5-11h-31l-6 12-2 1h-8l1-6 19-43z" fill="#433F41"/>
<path transform="translate(1447,1209)" d="m0 0h7l5 3 14 19 12 16 4 5 1-42h9l1 31v31l-10-1-7-8-12-16-11-14-2-5-1 1v42l-10 1-1-1v-61z" fill="#433F41"/>
<path transform="translate(985,896)" d="m0 0h2v84l3 9 4 6 10 5 17 3 2 3-1 1-10 1h-28l-44-1 1-4 15-3 7-3 3-1 2-4 4-9 2-14 2-51 2-9 6-10z" fill="#444142"/>
<path transform="translate(508,1209)" d="m0 0h43l1 3-1 7h-33v17h30v9h-30v17l34 1 1 1v7l-26 1h-20v-62z" fill="#444142"/>
<path transform="translate(1151,1218)" d="m0 0 10 1 9 6 4 6 1 3v14l-6 9-7 5-3 1h-10l-8-3-5-4-5-9v-13l3-6 5-5 7-4z" fill="#FEFEFE"/>
<path transform="translate(1353,1209)" d="m0 0h43l1 3-2 7h-32v17h30l1 1v7l-7 1h-24v18h35v7l-1 1-44 1-1-1v-61z" fill="#444142"/>
<path transform="translate(1655,1209)" d="m0 0h12l10 3 6 4-1 4-2 3-5-1-12-3-9 1-2 1-1 6 5 5 18 7 6 4 3 4 1 3v8l-6 9-8 4-5 1h-8l-11-3-7-4-3-3 1-6 4-2 5 4 8 3 12 1 5-3 1-2v-6l-4-3-20-7-7-6-2-5v-7l4-8 6-4z" fill="#332E32"/>
<path transform="translate(334,1209)" d="m0 0h12l10 3 6 4-3 7-6-1-10-3-10 1-3 3v5l5 4 19 7 7 6 2 4v9l-4 7-7 5-8 2h-8l-13-4-6-4-1-1v-7l5-1 8 5 10 2 8-1 4-3v-7l-10-5-13-5-6-4-3-4-1-3v-7l4-8 6-4z" fill="#302C30"/>
<path transform="translate(623,1209)" d="m0 0h11l10 3 9 6-2 5-4 2-9-5-5-1h-8l-8 4-5 5-3 5-1 9 3 9 4 6 7 4 5 1h8l10-4 1-1h5l1 5-7 6-7 3-5 1h-11l-10-4-9-8-5-9-1-4v-12l4-11 6-7 7-5z" fill="#434041"/>
<path transform="translate(1135,595)" d="m0 0 5 1-1 6-9 13-13 19-12 17-14 20-13 19-10 14-14 20-10 14-5 3h-2l2-6h2l2-5 2-1 2-5 4-6 2-2 1-5h3l1-4 3-2 1-8 11-15 11-16 13-18 14-20 12-17 11-15z" fill="#332E32"/>
<path transform="translate(940,528)" d="m0 0h25l14 2 17 5 9 4 3 2 2 13 2 38-5-1-3-15-6-14-8-11-7-7-12-7-12-3h-20l-12 3-7 3-4-1 3-2-2-1v-2l17-5z" fill="#434041"/>
<path transform="translate(868,724)" d="m0 0 4 1 7 24 8 16 10 14 7 7-1 6 5 4 12 7-4 1-19-5-19-8-3-2-3-17-4-40z" fill="#444142"/>
<path transform="translate(1589,1209)" d="m0 0h6l1 1v6l-1 2-19 1-1 52-1 1h-8l-1-1v-52h-13l-6-1-1-7 1-1z" fill="#433F41"/>
<path transform="translate(946,867)" d="m0 0 2 1-2 5-6 8-1 7-11 15-12 17-13 18-12 17-13 18-5 7h-5l-1-3 9-14 14-20 32-46 13-19 6-8 4-1z" fill="#322D31"/>
<path transform="translate(865,1209)" d="m0 0h9l1 3v50h15l12 1v7l-1 1-22 1h-15v-62z" fill="#444142"/>
<path transform="translate(701,1209)" d="m0 0h9l1 1v61l-3 1h-8v-62z" fill="#434041"/>
<path transform="translate(412,1209)" d="m0 0h23l14 2 6 4 4 7 1 3v12l-4 8-6 5-5 2-9 1h-12l-1-4-2-1v-4l16-1 9-2 4-5v-10l-2-4-5-3-7-1 2-2-2-2 2-1-2-1-24-1z" fill="#322D32"/>
<path transform="translate(422,1219)" d="m0 0h22l5 3 2 4v10l-5 6-9 2h-13l-2-1z" fill="#FEFEFE"/>
<path transform="translate(1662,1236)" d="m0 0 8 1 9 5 4 5 1 3v8l-6 9-8 4-5 1h-8l-11-3-7-4-3-3 1-6 4-2 5 4 8 3 12 1 5-3 2-10 1-2-8-4-5-5z" fill="#302C30"/>
<path transform="translate(1131,1371)" d="m0 0 10 2 5 3 1 1v9l-4 8-5 4-9 3-2 15-2 2h-6l5-25 3-16z" fill="#332E32"/>
<path transform="translate(352,1240)" d="m0 0 5 1 5 6 1 2v9l-4 7-7 5-8 2h-8l-13-4-6-4-1-1v-7l5-1 8 5 16 3 6-3 3-1 1-11-2-5-2-2z" fill="#302C30"/>
<path transform="translate(1021,1373)" d="m0 0h6l4 2 2 4v9l-4 8-5 4-6 1-6-3-2-3v-10l3-6 6-5z" fill="#353134"/>
<path transform="translate(1186,1373)" d="m0 0h8l1 1-1 10-1 5v7 4l-6-1-1-5-7 6h-7l-2-2 1-8 5-9 8-7z" fill="#343034"/>
<path transform="translate(508,1218)" d="m0 0 2 4 1 36 2 6 4-1h35l1 1v7h-45v-2l1-1h-1z" fill="#2E2A2E"/>
<path transform="translate(1567,1222)" d="m0 0 3 4 2-3h2l1 2v46l-1 1h-8l-1-1v-42h2z" fill="#444142"/>
<path transform="translate(625,1213)" d="m0 0h15l1 2-2 2h3v-2h2v3l2-2 1 3 2-1-1-2 5 2-2 5-4 2-9-5-5-1h-8l-8 4-5 5-3 5-2 14-3-2 3 7v2l2 2v2h-2v-2h-2l-4-5-1-7 2-14 4-7 5-6 4 1 3-3z" fill="#302B30"/>
<path transform="translate(329,1221)" d="m0 0 1 2v5l5 4 19 7-2 2 3 4 1 8-2 6-6 4-5 1 1-2 6-3 1-1v-7l-10-5-11-4-4-6-1-9 3-5z" fill="#434041"/>
<path transform="translate(1140,1211)" d="m0 0h6l7 1 9 1-1 3v1l-4 1-8-1h-3l-7 2 4-5-5 5-1 2-5 3-3 6-2 11h2l1-3v8l-2-1v3l1 6-3-1-3-9-1 1h-1v-14l4-8 6-7z" fill="#3D3A3C"/>
<path transform="translate(1147,1209)" d="m0 0h11l11 3 4 4-1 2h2v2l-4-2-4-1 8 7 1 5-2 2-4-6-8-5-10-1-9 3-4 3h-2l-2 4-2 5-1 11-2-4h-2l1-11 3-6 3-3h3l2-5 5-3 1 2-5 3 9-2 10 1 1-2 2-2-5 1-9-1-5-2z" fill="#413E40"/>
<path transform="translate(1648,1220)" d="m0 0 3 1v6l5 5 8 3-2 4 3 1 2 3 8 4-3 4-4-3-20-7-7-6-1-4 1-6 4-1 1-2h2z" fill="#444142"/>
<path transform="translate(1274,1374)" d="m0 0h7l3 3 3 10 1 9 4-4 1-5v-13l5 1 1 5-5 13-8 12-6 8-8 5h-5l-1-4 1-1 11-2 3-5 1-5-2-17-3-5-3-3z" fill="#363235"/>
<path transform="translate(787,1222)" d="m0 0 4 5 8 21-20 1-3-1 2-6z" fill="#FEFEFE"/>
<path transform="translate(1166,1215)" d="m0 0 1 2 4 1 3 2v-2h-2v-2l4 1 7 9 3 10v11l-2 6-7 1-2 1 3-12-1-5-1-4h-2v-8l-6-7-3-3z" fill="#312C31"/>
<path transform="translate(1182,805)" d="m0 0 2 1-6 14-4 10-5 11-5 12-6 13-7 17-8 16-5 12-6 13-1-4 7-15 12-29 5-10 7-17 7-15 5-13z" fill="#2D282D"/>
<path transform="translate(940,528)" d="m0 0h25l8 2-4 2 2 2-1 1-11-1h-20l-12 3-7 3-4-1 3-2-2-1v-2l17-5z" fill="#343033"/>
<path transform="translate(1171,837)" d="m0 0h2l-3 9-13 30-15 35-2 5h-2l-1-5 6-13 5-10 10-25 6-11 4-11z" fill="#413D3F"/>
<path transform="translate(1021,1375)" d="m0 0 5 1 2 3v10l-4 8-5 1-4-5v-9l3-6z" fill="#FEFEFE"/>
<path transform="translate(1133,1375)" d="m0 0h5l5 6-2 11-5 5-5 1-1-1v-10l2-10z" fill="#FEFEFE"/>
<path transform="translate(751,1374)" d="m0 0h6l-3 14 1 6 4 1 5-2 2-4v-9l-2-6h5l1 2v9l-4 10-7 5-7-1-3-3v-7l4-11-7 2v-4z" fill="#343033"/>
<path transform="translate(1569,1231)" d="m0 0h2l1 7h2l-1 3 1 1 1 17v12l-1 1h-8v-2l2-1v-8h-1v-6h1z" fill="#2F2A2F"/>
<path transform="translate(611,1217)" d="m0 0 4 1 2-1-2 4-4 4-3 13-1 9-3-2 3 7v2l2 2v2h-2v-2h-2l-4-5-1-7 2-14 4-7z" fill="#302C30"/>
<path transform="translate(807,1373)" d="m0 0h6l2 1-1 7-4 3-4-1 3-3v-4l-4 1-3 7-1 8 4 4 7 2-2 2h-9l-4-2-2-4v-8l6-9z" fill="#353034"/>
<path transform="translate(517,1236)" d="m0 0h31v8h-6l-5-1-20-1z" fill="#302C30"/>
<path transform="translate(714,1373)" d="m0 0h5l3 2-2 5-4 3-4-1 4-3v-4l-5 3-4 10 1 6 2 2 7 1-1 3h-10l-5-5v-9l6-9z" fill="#343033"/>
<path transform="translate(897,1372)" d="m0 0h9l3 3-1 1h-8l-2 20 7 1v2l-5 1h-7v-12l2-14z" fill="#363135"/>
<path transform="translate(979,1373)" d="m0 0 7 1 2 5-4 1-3-3-5 1-3 6v8l4 4 7 1v2l-3 1h-8l-5-4-1-2v-9l4-7 5-4z" fill="#353134"/>
<path transform="translate(1185,1376)" d="m0 0h4v9l-2 6-5 4-6 1-1-1 1-8 3-6z" fill="#FEFEFE"/>
<path transform="translate(1361,1237)" d="m0 0h33v7l-7 1-9-1-1-1-8-1v-2h-5z" fill="#302B30"/>
<path transform="translate(646,1257)" d="m0 0h5l1 5-7 6-7 3-5 1h-11l-1-2 10-1-2-2 9-2 1-3z" fill="#322E32"/>
<path transform="translate(1143,1213)" d="m0 0 2 2-5 3 9-2 12 2v1h-10l-9 3-4 3h-2l-2 4-2 5-1 11-2-4h-2l1-11 3-6 3-3h3l2-5z" fill="#444142"/>
<path transform="translate(1369,1264)" d="m0 0h25 3v6h-29v-3l2-1z" fill="#2D282D"/>
<path transform="translate(859,1373)" d="m0 0 4 1 1 1v24l-6 1-1-1 1-22-5 3h-3l6-6z" fill="#363135"/>
<path transform="translate(1076,1373)" d="m0 0 5 1 3 5-4 20-1 1h-5l1-7 2-8v-7h-3z" fill="#343034"/>
<path transform="translate(1240,1373)" d="m0 0 5 1 1 1v8l-1 13v4l-6-1-1-2 2-12v-7l-2-1v-3z" fill="#353135"/>
<path transform="translate(1090,1373)" d="m0 0 7 1v11l-1 10 1 4-5 1-2-1 1-12v-10l-3-2z" fill="#332F33"/>
<path transform="translate(1225,1374)" d="m0 0h6l1 3-2 13-2 9-1 1h-5l3-15v-7z" fill="#342F33"/>
<path transform="translate(1134,1372)" d="m0 0 7 1 5 3 1 1v9l-4 8-5 4-9 2v-10h1l1 7 6-2 3-3 2-11-4-5-4-2z" fill="#373336"/>
<path transform="translate(1062,1374)" d="m0 0h5l1 1v10l-3 14-1 1h-5l3-16v-6z" fill="#342F33"/>
<path transform="translate(605,1219)" d="m0 0h2l-2 4-4 9v15l2 8 6 8 7 4-4 1-9-8-5-9-1-4v-12l4-11z" fill="#423E40"/>
<path transform="translate(1138,1214)" d="m0 0 3 1-4 6-5 3-3 6-2 11h2l1-3v8l-2-1v3l1 6-3-1-3-9 2-12 2-6 9-10h2z" fill="#2D282D"/>
<path transform="translate(844,1373)" d="m0 0 4 1v7l2 1-5 18-5-1 3-15v-10z" fill="#332F33"/>
<path transform="translate(1183,1375)" d="m0 0 2 2-6 5-3 8v5l6-1 3-3h2l-1 3-7 6h-7l-2-2 1-8 5-9z" fill="#383437"/>
<path transform="translate(508,1209)" d="m0 0h43l1 3-1 6h-11v-1h8l-1-5-39-1z" fill="#393538"/>
<path transform="translate(412,1240)" d="m0 0h1l2 17 6 10-1 4h-8l2-1-2-2z" fill="#2D282D"/>
<path transform="translate(1151,884)" d="m0 0 1 4-12 28h-2l-1-5 6-13 4-8z" fill="#403D3F"/>
<path transform="translate(1015,1379)" d="m0 0h1v14l3 4v3l-6-1-3-4v-10l1-3z" fill="#312D31"/>
<path transform="translate(1e3 568)" d="m0 0 1 2 2 1 1 11 2-2 1 12-5-1-3-15-1-7z" fill="#332E32"/>
<path transform="translate(1353,1230)" d="m0 0h1l1 11 1 27 8 1-1 2-3 1h-7z" fill="#2E292E"/>
<path transform="translate(1447,1209)" d="m0 0h7l5 3 5 7-1 3-4-4-6-1-3-1-4-6z" fill="#312C30"/>
<path transform="translate(1065,1244)" d="m0 0h2v16h2l3 11h-7z" fill="#2D282D"/>
<path transform="translate(1061,699)" d="m0 0h1v6l-4 2-1 4-2 1-1 6-3 1-3 5-3-1 2-4 11-16z" fill="#444142"/>
<path transform="translate(1293,1374)" d="m0 0 5 1 1 5-5 13-5 7-2-1 1-3 4-4 1-5z" fill="#423F40"/>
<path transform="translate(1644,1214)" d="m0 0h3l2 5-1 3h-2l-2 4h-2l-1 5-2-1v-7l4-8z" fill="#312D31"/>
<path transform="translate(1254,740)" d="m0 0h9l1 4-1 1h-16l-1-1-8-1v-1z" fill="#312C30"/>
<path transform="translate(1145,1211)" d="m0 0 13 2h4l-1 3v1l-4 1-8-1h-3l-7 2 3-4 3-2z" fill="#2D282D"/>
<path transform="translate(1181,813)" d="m0 0 2 1-3 9-6 14h-3l1-6 4-7 4-10z" fill="#434041"/>
<path transform="translate(751,1374)" d="m0 0h6l-4 18-3-3 3-11-7 2v-4z" fill="#3E3A3C"/>
<path transform="translate(1490,1210)" d="m0 0h9v5l-3 2-1 3h-3v12h-1v-13h3l-3-1z" fill="#312C31"/>
<path transform="translate(1177,1256)" d="m0 0 2 2-1 4-5 4h-6l1-5 5-4h3z" fill="#332F33"/>
<path transform="translate(749,1389)" d="m0 0 3 1v2h2l1 2 6 2v3l-7 1-5-4z" fill="#322E32"/>
<path transform="translate(1171,837)" d="m0 0h2l-3 9-7 16-2 1 2-10 6-13z" fill="#413D3F"/>
<path transform="translate(1353,1209)" d="m0 0 39 1v1l-36 1-2 17h-1z" fill="#2D282D"/>
<path transform="translate(714,1373)" d="m0 0h5l3 2-2 5-4 3-4-1 4-3v-4l-6 3-5 3 2-4z" fill="#363235"/>
<path transform="translate(645,1216)" d="m0 0 2 2 1-1 2-1 3 2-2 5-4 2-9-5 4-3 2 1z" fill="#332F33"/>
<path transform="translate(979,1373)" d="m0 0 7 1 2 5-4 1-3-3-5 1-2 2h-2l-2 1 2-4 4-3z" fill="#383437"/>
<path transform="translate(807,1373)" d="m0 0h6l2 1-1 7-4 3-4-1 3-3v-4l-5 1-1-2z" fill="#393538"/>
<path transform="translate(1484,1262)" d="m0 0h6l6 7 3 2h-9l-6-7z" fill="#302C30"/>
<path transform="translate(957 1e3)" d="m0 0 2 1-3 3-9 2h-7l1-4z" fill="#342F33"/>
<path transform="translate(904,797)" d="m0 0h6l10 6-4 1-16-4v-2z" fill="#373336"/>
<path transform="translate(629,1210)" d="m0 0h10l10 5 1 4-4 1v-3l-2 2-1-2 1-2h-2v2l-3 1v-3l1-3-11-1z" fill="#3D393B"/>
<path transform="translate(1049,728)" d="m0 0v3l-5 7-5 3h-2l2-6h2l2-5z" fill="#383437"/>
<path transform="translate(954,858)" d="m0 0v3l-5 7-3 1-2 2-2-1 2-5 4-4h2v-2z" fill="#3B373A"/>
<path transform="translate(865,1209)" d="m0 0h9l1 3-2 2-1-1-2 2-2-1-2 6h-1l-1-10z" fill="#322D31"/>
<path transform="translate(868,724)" d="m0 0 4 1 1 16h-3l-1-8-1-1z" fill="#322E32"/>
<path transform="translate(1455,1237)" d="m0 0h1l1 34h-8l1-4v2l4-2z" fill="#2E292E"/>
<path transform="translate(1008,1209)" d="m0 0h11l4 6-1 4-1-4-4-1-2-2-3-1v2h-2v-2h-2z" fill="#363235"/>
<path transform="translate(1248 1e3)" d="m0 0h22l1 4-9-1-14-2z" fill="#332F33"/>
<path transform="translate(617,1217)" d="m0 0 8 1-12 8-3 3-1-2 4-6z" fill="#423F40"/>
<path transform="translate(1051,718)" d="m0 0 3 1-1 2 1 3-5 5-3 1v-4z" fill="#2F2B2F"/>
<path transform="translate(1010,580)" d="m0 0h1l1 12-5-1v-9h2z" fill="#342F33"/>
<path transform="translate(605,1219)" d="m0 0h2l-2 4-4 9-1 8-2 1v-10l5-10z" fill="#353034"/>
<path transform="translate(1574,1219)" d="m0 0 2 4-2 2v-2h-2l-2 4-2-2-2 4v-9h6l2 1z" fill="#2D282D"/>
<path transform="translate(1147,1209)" d="m0 0h11l-1 2 5 1-4 2-10-1-5-2z" fill="#444142"/>
<path transform="translate(1267,1413)" d="m0 0h10v2l-5 3h-5l-1-4z" fill="#332F33"/>
<path transform="translate(1293,1374)" d="m0 0 5 1 1 5-3 5h-1l-2-6z" fill="#322E32"/>
<path transform="translate(1643,1229)" d="m0 0 2 4 1 4 11 5-4 1-8-4-4-4 1-4z" fill="#343033"/>
<path transform="translate(1498,1236)" d="m0 0h1v26h-2l-1 4-2-7h3z" fill="#2D282D"/>
<path transform="translate(547,1210)" d="m0 0h5l-1 8h-11v-1h8z" fill="#302B2F"/>
<path transform="translate(600,1251)" d="m0 0 4 5 4 6 8 5-4 1-9-8-3-5z" fill="#363235"/>
<path transform="translate(1180,1252)" d="m0 0 3 1-2 5h-3-2l-2 1v-4z" fill="#413D3F"/>
<path transform="translate(1151,884)" d="m0 0 1 4-4 9-3-1 2-6z" fill="#3D3A3C"/>
<path transform="translate(751,1374)" d="m0 0h6v2l-9 4h-2v-4z" fill="#363235"/>
<path transform="translate(1161,858)" d="m0 0 1 3-1 6-2 5-3-1 3-9z" fill="#423F40"/>
<path transform="translate(767,1381)" d="m0 0h1l1 8-5 8-3 1v-2l-2-1 5-2 2-4z" fill="#3D3A3C"/>
<path transform="translate(758,1264)" d="m0 0h2v5h5l-1 3h-8l1-6z" fill="#363135"/>
<path transform="translate(896,1265)" d="m0 0 2 1v3h2l1-2v3h-18v-1h11l-1-3z" fill="#2D282D"/>
<path transform="translate(1383,1209)" d="m0 0h13l1 3-3 3-3-1 1-4h-9z" fill="#393538"/>
<path transform="translate(1175,1234)" d="m0 0 3 1 1 9-2 3-2 1z" fill="#454243"/>
<path transform="translate(982,905)" d="m0 0 1 4-4 9h-1v-9z" fill="#302C30"/>
<path transform="translate(1021,1373)" d="m0 0h3v2l-5 3-3 3h-2l-2 1 2-4 5-4z" fill="#3D393B"/>
<path transform="translate(1140,907)" d="m0 0h3l-3 9h-2l-1-5z" fill="#3F3B3D"/>
<path transform="translate(1166,849)" d="m0 0 1 4-5 10-1-2 2-8z" fill="#3C383A"/>
<path transform="translate(1036,1261)" d="m0 0h8l-1 4-3 2-4-4z" fill="#343034"/>
<path transform="translate(1033,816)" d="m0 0 3 3 1 6-4-1-1-5z" fill="#363235"/>
<path transform="translate(1285,1391)" d="m0 0 2 3 1 6h-5v-7z" fill="#2D282D"/>
<path transform="translate(714,1373)" d="m0 0h5l-2 1-1 3v-2l-6 3-5 3 2-4z" fill="#3F3C3E"/>
<path transform="translate(1120,1236)" d="m0 0h1l1 5 2 1v6l-3 2-1-3z" fill="#454243"/>
<path transform="translate(611,1217)" d="m0 0 4 1 2-1-2 4-8 2z" fill="#2D282D"/>
<path transform="translate(1282,1402)" d="m0 0 2 4-2 5-5 3-2-2 5-3z" fill="#423F40"/>
<path transform="translate(815,1263)" d="m0 0h2l2 4v4h-7l4-3z" fill="#322E32"/>
</svg>
