<?xml version="1.0" encoding="iso-8859-1"?>
<!-- Uploaded to: SVG Repo, www.svgrepo.com, Generator: SVG Repo Mixer Tools -->
<svg height="800px" width="800px" version="1.1" id="Capa_1" xmlns="http://www.w3.org/2000/svg" xmlns:xlink="http://www.w3.org/1999/xlink" 
	 viewBox="0 0 28.507 28.507" xml:space="preserve">
<g>
	<path style="fill:#010002;" d="M10.318,1.644c-0.407,0.204-5.68,2.566-4.39,3.631c0.475,0.392,1.276,0.453,1.854,0.568
		c0.852,0.171,1.722,0.338,2.519,0.697c0.632,0.285,1.477,0.934,1.302,1.741c-0.104,0.485-0.674,0.773-1.071,0.977
		C9.957,9.555,9.344,9.776,8.746,10.02c-0.901,0.369-2.225,0.87-2.434,1.962c-0.107,0.557,0.179,1.056,0.522,1.471
		c0.459,0.553,1.006,1.023,1.481,1.561c0.289,0.327,0.554,0.698,0.692,1.117c0.15,0.454,0.091,0.981,0.019,1.444
		c-0.145,0.926-0.594,1.769-1.013,2.594c-0.382,0.752-0.729,1.516-0.874,2.354c-0.185,1.058,0.061,2.122,0.475,3.096
		c0.076,0.179,0.367-0.081,0.298-0.243c-0.363-0.854-0.573-1.75-0.482-2.681c0.071-0.727,0.352-1.413,0.667-2.064
		c0.621-1.285,1.315-2.506,1.321-3.977c0.005-1.448-1.296-2.342-2.176-3.318c-0.395-0.439-0.806-1.025-0.538-1.632
		c0.216-0.491,0.79-0.778,1.243-1.003c1.23-0.611,5.276-1.581,3.628-3.703c-0.491-0.632-1.318-0.928-2.06-1.139
		C8.704,5.628,7.868,5.51,7.05,5.311C6.689,5.223,5.758,5.027,6.177,4.506C6.52,4.08,7.053,3.777,7.512,3.495
		c0.922-0.568,1.892-1.062,2.861-1.547C10.543,1.862,10.548,1.529,10.318,1.644z M18.614,8.297c0.688-0.048,1.381-0.09,2.07-0.059
		c0.256,0.012,0.639,0.007,0.852,0.181c0.12,0.099-0.006,0.234-0.091,0.321c-0.19,0.195-0.424,0.35-0.647,0.504
		c-0.514,0.357-1.09,0.687-1.511,1.16c-0.138,0.154-0.28,0.355-0.26,0.573c0.024,0.275,0.302,0.414,0.53,0.5
		c0.838,0.316,1.771,0.267,2.619,0.555c0.243,0.083,0.579,0.249,0.446,0.558c-0.172,0.4-0.694,0.445-1.071,0.472
		c-0.863,0.06-2.066-0.043-2.399,0.981c-0.12,0.366-0.015,0.654,0.181,0.971c0.196,0.318,0.443,0.602,0.629,0.928
		c0.098,0.175,0.212,0.429,0.037,0.593c-0.121,0.113-0.311,0.156-0.466,0.189c-0.284,0.057-0.576,0.07-0.864,0.075
		c-0.065,0.001-0.115,0.138-0.031,0.136c0.325-0.006,0.652-0.024,0.969-0.099c0.172-0.041,0.35-0.106,0.476-0.234
		c0.214-0.215,0.121-0.512-0.005-0.746c-0.178-0.328-0.428-0.613-0.627-0.926c-0.091-0.145-0.176-0.297-0.219-0.463
		c-0.053-0.201,0.014-0.407,0.104-0.588c0.225-0.455,0.748-0.581,1.209-0.628c0.477-0.049,0.961-0.015,1.434-0.11
		c0.352-0.071,0.698-0.266,0.791-0.64c0.071-0.295-0.195-0.469-0.432-0.566c-0.398-0.164-0.846-0.219-1.269-0.286
		c-0.449-0.073-0.907-0.132-1.343-0.27c-0.221-0.07-0.569-0.199-0.578-0.478c-0.008-0.211,0.185-0.4,0.322-0.536
		c0.462-0.45,1.037-0.774,1.559-1.149c0.187-0.134,0.916-0.601,0.612-0.905c-0.188-0.19-0.571-0.19-0.815-0.206
		c-0.723-0.05-1.457,0.002-2.179,0.052C18.581,8.165,18.53,8.302,18.614,8.297z M12.59,11.887c0.824,0.284,1.655,0.58,2.449,1.037
		c0.323,0.186,0.742,0.414,0.953,0.872c0.358,0.777-0.487,1.35-0.819,1.607c-0.685,0.53-1.45,0.952-2.027,1.757
		c-0.216,0.3-0.401,0.701-0.374,1.173c0.042,0.73,0.494,1.25,0.872,1.562c0.995,0.819,2.356,1.02,2.974,2.668
		c0.351,0.936,0.322,2.169,0.002,3.109c-0.392,1.155-1.164,1.944-1.9,2.49c-0.17,0.127-0.346,0.238-0.524,0.339
		c-0.081,0.046-0.185-0.208-0.091-0.259c0.804-0.456,1.61-1.172,2.148-2.235c0.48-0.947,0.618-2.294,0.231-3.374
		c-0.29-0.815-0.871-1.245-1.402-1.58c-0.548-0.345-1.125-0.6-1.636-1.076c-0.376-0.351-0.74-0.903-0.823-1.604
		c-0.055-0.467,0.067-0.887,0.262-1.232c0.494-0.876,1.294-1.326,1.952-1.813c0.223-0.165,1.265-0.796,1.058-1.381
		c-0.152-0.432-0.635-0.646-0.906-0.8c-0.772-0.438-1.581-0.723-2.38-1C12.521,12.118,12.474,11.846,12.59,11.887z M13.522,0.911
		c-0.361-0.125-0.723-0.25-1.088-0.34c-0.091-0.021-0.183-0.04-0.273-0.052c-0.089-0.012-0.186-0.017-0.252,0.007
		C11.876,0.54,11.868,0.55,11.864,0.57c-0.006,0.023,0.003,0.062,0.019,0.099c0.03,0.077,0.082,0.155,0.137,0.229
		c0.112,0.149,0.234,0.309,0.316,0.493c0.04,0.094,0.074,0.197,0.064,0.312c-0.006,0.056-0.024,0.113-0.054,0.161
		c-0.03,0.048-0.066,0.088-0.105,0.122c-0.157,0.132-0.329,0.209-0.462,0.338c-0.137,0.124-0.224,0.298-0.259,0.486
		c0-0.191,0.072-0.388,0.205-0.537c0.13-0.151,0.306-0.251,0.435-0.374c0.063-0.062,0.103-0.13,0.106-0.207
		c0.005-0.078-0.022-0.162-0.061-0.242c-0.078-0.162-0.19-0.31-0.309-0.463c-0.057-0.08-0.112-0.163-0.151-0.264
		c-0.02-0.051-0.038-0.108-0.025-0.18c0.007-0.036,0.026-0.075,0.054-0.101c0.027-0.027,0.059-0.041,0.088-0.052
		c0.119-0.033,0.219-0.016,0.317-0.002c0.099,0.015,0.193,0.04,0.286,0.069C12.835,0.571,13.186,0.728,13.522,0.911z M15.567,6.252
		c0.572-0.279,1.144-0.556,1.68-0.881c0.133-0.082,0.262-0.168,0.383-0.261c0.117-0.092,0.236-0.199,0.286-0.304
		c0.022-0.055,0.021-0.077,0.001-0.105c-0.02-0.032-0.076-0.069-0.138-0.095c-0.128-0.054-0.278-0.084-0.429-0.107
		c-0.309-0.044-0.639-0.088-0.953-0.207C16.241,4.229,16.081,4.147,15.958,4c-0.061-0.072-0.107-0.162-0.129-0.253
		c-0.021-0.091-0.024-0.181-0.018-0.267c0.029-0.339,0.14-0.631,0.145-0.94c0.016-0.306-0.087-0.613-0.266-0.875
		c0.224,0.226,0.37,0.542,0.389,0.873c0.025,0.33-0.064,0.656-0.071,0.95c-0.002,0.147,0.03,0.275,0.118,0.369
		c0.085,0.096,0.217,0.162,0.355,0.211c0.283,0.101,0.588,0.141,0.907,0.182c0.163,0.028,0.324,0.06,0.489,0.131
		c0.082,0.039,0.17,0.084,0.242,0.183c0.033,0.05,0.055,0.118,0.054,0.181c-0.001,0.064-0.021,0.12-0.044,0.166
		c-0.098,0.178-0.236,0.276-0.369,0.376c-0.134,0.096-0.274,0.178-0.416,0.254C16.774,5.842,16.178,6.07,15.567,6.252z
		 M13.522,2.789l0.335,1.025h1.077l-0.871,0.634l0.333,1.027L13.522,4.84l-0.87,0.635l0.332-1.027l-0.873-0.634h1.079L13.522,2.789z
		 M14.696,8.572l0.209,0.642h0.675l-0.547,0.397l0.21,0.643l-0.547-0.397l-0.547,0.397l0.209-0.643l-0.547-0.397h0.676L14.696,8.572
		z M20.676,2.883l0.013,0.04h0.042l-0.035,0.025l0.013,0.04l-0.033-0.025l-0.034,0.025l0.012-0.04L20.62,2.923h0.041L20.676,2.883z
		 M7.605,6.422l0.292,0.901h0.947L8.078,7.879l0.293,0.902L7.605,8.224L6.838,8.781l0.293-0.902L6.365,7.323h0.947L7.605,6.422z
		 M16.509,7.541c0.199,0,0.361,0.162,0.361,0.361s-0.162,0.361-0.361,0.361c-0.199,0-0.361-0.162-0.361-0.361
		S16.31,7.541,16.509,7.541z M18.498,3.309c0.179,0,0.325,0.146,0.325,0.325s-0.146,0.325-0.325,0.325
		c-0.179,0-0.325-0.146-0.325-0.325S18.319,3.309,18.498,3.309z M17.906,1.666c0.148,0,0.268,0.12,0.268,0.268
		s-0.12,0.268-0.268,0.268c-0.148,0-0.268-0.12-0.268-0.268S17.758,1.666,17.906,1.666z M12.021,9.029
		c0.277,0,0.501,0.224,0.501,0.501s-0.224,0.501-0.501,0.501c-0.277,0-0.501-0.224-0.501-0.501S11.744,9.029,12.021,9.029z
		 M11.059,11.397c0.255,0,0.461,0.206,0.461,0.461s-0.206,0.461-0.461,0.461s-0.461-0.206-0.461-0.461S10.804,11.397,11.059,11.397z
		 M10.557,3.782c0.161,0,0.291,0.13,0.291,0.291s-0.13,0.291-0.291,0.291c-0.161,0-0.291-0.13-0.291-0.291
		C10.266,3.912,10.396,3.782,10.557,3.782z M10.183,0c0.229,0,0.414,0.185,0.414,0.414s-0.185,0.414-0.414,0.414
		c-0.229,0-0.414-0.185-0.414-0.414S9.954,0,10.183,0z M8.236,13.204c0.16,0,0.29,0.13,0.29,0.29s-0.13,0.29-0.29,0.29
		c-0.16,0-0.29-0.13-0.29-0.29S8.076,13.204,8.236,13.204z M17.254,11.397c0.212,0,0.384,0.172,0.384,0.384
		s-0.172,0.384-0.384,0.384s-0.384-0.172-0.384-0.384S17.042,11.397,17.254,11.397z M18.339,13.782c0.24,0,0.434,0.194,0.434,0.434
		s-0.194,0.434-0.434,0.434s-0.434-0.194-0.434-0.434S18.099,13.782,18.339,13.782z"/>
</g>
</svg>